<svg xmlns="http://www.w3.org/2000/svg" width="261.13671875" height="262.57373046875" viewBox="-36.9715461730957 -36.05522918701172 261.13671875 262.57373046875"><title>Neo4j Graph Visualization</title><desc>Created using Neo4j (http://www.neo4j.com/)</desc><g class="layer relationships"><g class="relationship" transform="translate(180.6536031023039 177.38659011583803) rotate(223.815747312942)"><path class="outline" fill="#A5ABB6" stroke="none" d="M 25 0.5 L 29.606332908606937 0.5 L 29.606332908606937 -0.5 L 25 -0.5 Z M 75.16883290860693 0.5 L 79.77516581721387 0.5 L 79.77516581721387 3.5 L 86.77516581721387 0 L 79.77516581721387 -3.5 L 79.77516581721387 -0.5 L 75.16883290860693 -0.5 Z"/><text text-anchor="middle" pointer-events="none" font-size="8px" fill="#000000" x="52.38758290860694" y="3" transform="rotate(180 52.38758290860694 0)" font-family="sans-serif">ACTED_IN</text></g><g class="relationship" transform="translate(195.16512465442096 40.437973037417954) rotate(507.9583388603271)"><path class="outline" fill="#A5ABB6" stroke="none" d="M 25 0.5 L 29.18853704758437 0.5 L 29.18853704758437 -0.5 L 25 -0.5 Z M 76.07916204758436 0.5 L 80.26769909516874 0.5 L 80.26769909516874 3.5 L 87.26769909516874 0 L 80.26769909516874 -3.5 L 80.26769909516874 -0.5 L 76.07916204758436 -0.5 Z"/><text text-anchor="middle" pointer-events="none" font-size="8px" fill="#000000" x="52.63384954758437" y="3" transform="rotate(180 52.63384954758437 0)" font-family="sans-serif">DIRECTED</text></g><g class="relationship" transform="translate(75.12456069192318 -7.055227202735591) rotate(436.91883370307363)"><path class="outline" fill="#A5ABB6" stroke="none" d="M 25 0.5 L 33.56691991084236 0.5 L 33.56691991084236 -0.5 L 25 -0.5 Z M 69.34035741084236 0.5 L 77.90727732168472 0.5 L 77.90727732168472 3.5 L 84.90727732168472 0 L 77.90727732168472 -3.5 L 77.90727732168472 -0.5 L 69.34035741084236 -0.5 Z"/><text text-anchor="middle" pointer-events="none" font-size="8px" fill="#000000" x="51.45363866084236" y="3" font-family="sans-serif">WROTE</text></g><g class="relationship" transform="translate(-7.971545438076686 79.52139314650469) rotate(370.7395358104309)"><path class="outline" fill="#A5ABB6" stroke="none" d="M 25 0.5 L 33.56150244547573 0.5 L 33.56150244547573 -0.5 L 25 -0.5 Z M 69.33493994547572 0.5 L 77.89644239095146 0.5 L 77.89644239095146 3.5 L 84.89644239095146 0 L 77.89644239095146 -3.5 L 77.89644239095146 -0.5 L 69.33493994547572 -0.5 Z"/><text text-anchor="middle" pointer-events="none" font-size="8px" fill="#000000" x="51.44822119547573" y="3" font-family="sans-serif">WROTE</text></g><g class="relationship" transform="translate(44.40965736201342 197.518490992048) rotate(299.68527050065455)"><path class="outline" fill="#A5ABB6" stroke="none" d="M 25 0.5 L 29.84392675815338 0.5 L 29.84392675815338 -0.5 L 25 -0.5 Z M 75.40642675815337 0.5 L 80.25035351630676 0.5 L 80.25035351630676 3.5 L 87.25035351630676 0 L 80.25035351630676 -3.5 L 80.25035351630676 -0.5 L 75.40642675815337 -0.5 Z"/><text text-anchor="middle" pointer-events="none" font-size="8px" fill="#000000" x="52.62517675815338" y="3" font-family="sans-serif">ACTED_IN</text></g></g><g class="layer nodes"><g class="node" transform="translate(100,100.00000213005272)"><circle class="outline" cx="0" cy="0" r="25" fill="#F79767" stroke="#f36924" stroke-width="2px"/><text text-anchor="middle" pointer-events="none" font-family="sans-serif" dy="1.5625" font-size="25" fill="#FFFFFF"/><text text-anchor="middle" pointer-events="none" font-family="sans-serif" dy="1.5625" font-size="25" fill="#FFFFFF"/><text text-anchor="middle" pointer-events="none" font-family="sans-serif" dy="1.5625" font-size="25" fill="#FFFFFF"/><text text-anchor="middle" pointer-events="none" x="0" y="-5" font-size="10px" fill="#FFFFFF" font-family="sans-serif"> Captain</text><text text-anchor="middle" pointer-events="none" x="0" y="5" font-size="10px" fill="#FFFFFF" font-family="sans-serif"> America:</text><text text-anchor="middle" pointer-events="none" x="0" y="15" font-size="10px" fill="#FFFFFF" font-family="sans-serif"> The Fi…</text></g><g class="node" transform="translate(180.6536031023039,177.38659011583803)"><circle class="outline" cx="0" cy="0" r="25" fill="#57C7E3" stroke="#23b3d7" stroke-width="2px"/><text text-anchor="middle" pointer-events="none" font-family="sans-serif" dy="1.5625" font-size="25" fill="#2A2C34"/><text text-anchor="middle" pointer-events="none" font-family="sans-serif" dy="1.5625" font-size="25" fill="#2A2C34"/><text text-anchor="middle" pointer-events="none" x="0" y="0" font-size="10px" fill="#2A2C34" font-family="sans-serif"> Chris</text><text text-anchor="middle" pointer-events="none" x="0" y="10" font-size="10px" fill="#2A2C34" font-family="sans-serif"> Evans</text></g><g class="node" transform="translate(195.16512465442096,40.437973037417954)"><circle class="outline" cx="0" cy="0" r="25" fill="#57C7E3" stroke="#23b3d7" stroke-width="2px"/><text text-anchor="middle" pointer-events="none" font-family="sans-serif" dy="1.5625" font-size="25" fill="#2A2C34"/><text text-anchor="middle" pointer-events="none" font-family="sans-serif" dy="1.5625" font-size="25" fill="#2A2C34"/><text text-anchor="middle" pointer-events="none" x="0" y="0" font-size="10px" fill="#2A2C34" font-family="sans-serif"> Joe</text><text text-anchor="middle" pointer-events="none" x="0" y="10" font-size="10px" fill="#2A2C34" font-family="sans-serif"> Johnston</text></g><g class="node" transform="translate(75.12456069192318,-7.055227202735591)"><circle class="outline" cx="0" cy="0" r="25" fill="#57C7E3" stroke="#23b3d7" stroke-width="2px"/><text text-anchor="middle" pointer-events="none" font-family="sans-serif" dy="1.5625" font-size="25" fill="#2A2C34"/><text text-anchor="middle" pointer-events="none" font-family="sans-serif" dy="1.5625" font-size="25" fill="#2A2C34"/><text text-anchor="middle" pointer-events="none" x="0" y="0" font-size="10px" fill="#2A2C34" font-family="sans-serif"> Stephen</text><text text-anchor="middle" pointer-events="none" x="0" y="10" font-size="10px" fill="#2A2C34" font-family="sans-serif"> McFeely</text></g><g class="node" transform="translate(-7.971545438076686,79.52139314650469)"><circle class="outline" cx="0" cy="0" r="25" fill="#57C7E3" stroke="#23b3d7" stroke-width="2px"/><text text-anchor="middle" pointer-events="none" font-family="sans-serif" dy="1.5625" font-size="25" fill="#2A2C34"/><text text-anchor="middle" pointer-events="none" x="0" y="5" font-size="10px" fill="#2A2C34" font-family="sans-serif"> Christop…</text></g><g class="node" transform="translate(44.40965736201342,197.518490992048)"><circle class="outline" cx="0" cy="0" r="25" fill="#57C7E3" stroke="#23b3d7" stroke-width="2px"/><text text-anchor="middle" pointer-events="none" font-family="sans-serif" dy="1.5625" font-size="25" fill="#2A2C34"/><text text-anchor="middle" pointer-events="none" font-family="sans-serif" dy="1.5625" font-size="25" fill="#2A2C34"/><text text-anchor="middle" pointer-events="none" x="0" y="0" font-size="10px" fill="#2A2C34" font-family="sans-serif"> Hayley</text><text text-anchor="middle" pointer-events="none" x="0" y="10" font-size="10px" fill="#2A2C34" font-family="sans-serif"> Atwell</text></g></g></svg>